<?xml version="1.0" encoding="UTF-8" standalone="no"?>
<!DOCTYPE svg PUBLIC "-//W3C//DTD SVG 1.1//EN" "http://www.w3.org/Graphics/SVG/1.1/DTD/svg11.dtd">
<svg width="100%" height="100%" viewBox="0 0 57 57" version="1.1" xmlns="http://www.w3.org/2000/svg" xmlns:xlink="http://www.w3.org/1999/xlink" xml:space="preserve" xmlns:serif="http://www.serif.com/" style="fill-rule:evenodd;clip-rule:evenodd;stroke-linejoin:round;stroke-miterlimit:1.41421;">
    <rect x="-1" y="-1" width="582" height="402" style="fill:none;"/>
    <g>
        <path d="M41.8,30.5C41.7,24.3 46.9,21.3 47.1,21.1C44.2,16.9 39.7,16.3 38.1,16.2C34.3,15.8 30.6,18.5 28.7,18.5C26.8,18.5 23.8,16.3 20.6,16.4C16.4,16.5 12.6,18.8 10.4,22.6C6,30.1 9.3,41.2 13.5,47.3C15.6,50.3 18,53.6 21.3,53.5C24.4,53.4 25.6,51.5 29.4,51.5C33.2,51.5 34.2,53.5 37.5,53.5C40.9,53.4 43,50.5 45,47.5C47.4,44 48.3,40.7 48.4,40.5C48.3,40.4 41.8,38 41.8,30.5Z" style="fill:rgb(96,96,96);fill-rule:nonzero;"/>
        <path d="M35.6,12.2C37.3,10.1 38.5,7.2 38.2,4.3C35.7,4.4 32.7,5.9 31,8C29.4,9.8 28,12.8 28.4,15.6C31,15.9 33.9,14.3 35.6,12.2Z" style="fill:rgb(96,96,96);fill-rule:nonzero;"/>
    </g>
</svg>
