<?xml version="1.0" encoding="UTF-8" standalone="no"?>
<!DOCTYPE svg PUBLIC "-//W3C//DTD SVG 1.1//EN" "http://www.w3.org/Graphics/SVG/1.1/DTD/svg11.dtd">
<svg width="100%" height="100%" viewBox="0 0 128 128" version="1.1" xmlns="http://www.w3.org/2000/svg" xmlns:xlink="http://www.w3.org/1999/xlink" xml:space="preserve" xmlns:serif="http://www.serif.com/" style="fill-rule:evenodd;clip-rule:evenodd;stroke-linejoin:round;stroke-miterlimit:1.41421;">
    <g>
        <rect x="0" y="0" width="128" height="128" style="fill:none;"/>
        <path d="M27.6,64C27.6,59.8 28.3,55.9 29.5,52.1L7.9,35.6C3.7,44.2 1.4,53.8 1.4,64C1.4,74.2 3.8,83.8 8,92.3L29.6,75.8C28.3,72.1 27.6,68.1 27.6,64" style="fill:rgb(251,188,5);fill-rule:nonzero;"/>
        <path d="M65.5,26.2C74.5,26.2 82.7,29.4 89.1,34.6L107.7,16C96.3,6.1 81.8,0 65.5,0C40.1,0 18.4,14.5 7.9,35.6L29.5,52.1C34.5,37 48.6,26.2 65.5,26.2" style="fill:rgb(234,67,53);fill-rule:nonzero;"/>
        <path d="M65.5,101.8C48.7,101.8 34.5,90.9 29.6,75.9L7.9,92.4C18.4,113.5 40.1,128 65.5,128C81.1,128 96.1,122.4 107.3,112L86.7,96.2C81,99.9 73.7,101.8 65.5,101.8" style="fill:rgb(52,168,83);fill-rule:nonzero;"/>
        <path d="M126.6,64C126.6,60.2 126,56.1 125.1,52.4L65.5,52.4L65.5,77.1L99.9,77.1C98.2,85.5 93.5,92 86.8,96.2L107.3,112C119,101.1 126.6,84.9 126.6,64" style="fill:rgb(66,133,244);fill-rule:nonzero;"/>
    </g>
</svg>
