<?xml version="1.0" encoding="UTF-8" standalone="no"?>
<!DOCTYPE svg PUBLIC "-//W3C//DTD SVG 1.1//EN" "http://www.w3.org/Graphics/SVG/1.1/DTD/svg11.dtd">
<svg width="100%" height="100%" viewBox="0 0 1024 1024" version="1.1" xmlns="http://www.w3.org/2000/svg" xmlns:xlink="http://www.w3.org/1999/xlink" xml:space="preserve" xmlns:serif="http://www.serif.com/" style="fill-rule:evenodd;clip-rule:evenodd;stroke-linejoin:round;stroke-miterlimit:1.41421;">
    <rect x="-1" y="-1" width="582" height="402" style="fill:none;"/>
    <g>
        <path d="M644.9,764.4L644.9,492.7C664.2,506 682.3,518.3 700.3,530.7C716.5,541.8 719.2,541.7 735.9,530.6C828.4,469.1 920.9,407.7 1013.4,346.2C1016.2,344.3 1019.1,342.6 1023.2,340.1C1023.5,344.3 1024,347.5 1024,350.6C1024,468.8 1024.1,587 1024,705.3C1024,744.6 1004.1,764.4 965,764.4L644.9,764.4Z" style="fill:rgb(0,114,198);fill-rule:nonzero;"/>
        <path d="M645.6,216.9L981.8,216.9C1001.2,216.9 1016.2,228.8 1022.3,247.4C1025,255.6 1022.3,259.6 1015.6,264C931.5,320.3 847.6,376.9 763.6,433.4C751.6,441.5 739.5,449.3 727.7,457.7C721.3,462.3 715.5,462.5 708.9,458.2C689.7,445.8 670.2,434 651.1,421.5C647.9,419.4 644.6,414.6 644.6,411.1C644.3,347.6 644.4,284.1 644.5,220.6C644.5,219.8 644.9,219.1 645.6,216.9Z" style="fill:rgb(0,114,198);fill-rule:nonzero;"/>
        <path d="M596.7,1024C397.6,982.3 199.3,940.8 0.3,899.2L0.3,886.1C0.3,633.6 0.4,381.1 0,128.6C0,118.1 2.8,114.5 13,112.6C172.1,82.2 331.2,51.4 490.3,20.6C525.4,13.7 560.5,7 596.7,0L596.7,1024ZM438,511C437.6,469.4 431.9,431 411.3,396.1C394.7,368 372.3,346.7 340,337.5C277.2,319.6 217.2,349 187.6,412.5C168.7,453.2 164.6,496.4 168.3,540.6C171.5,578.9 182.6,614.3 207.3,644.6C256.4,704.8 345.7,705.2 395.5,645.4C428.4,605.8 437.4,558.7 438,511Z" style="fill:rgb(0,114,198);fill-rule:nonzero;"/>
        <path d="M232.9,511.9C232.8,482.2 236.8,453.5 253.6,428.1C269.1,404.6 292.6,395 318.5,401.5C338.6,406.5 350.8,420.8 358.9,438.7C372.7,469.4 375.1,502 371,534.6C368.7,552.7 363.5,571.1 356.2,587.8C346.7,609.4 328.4,621.8 304,622.3C279.4,622.8 262.3,610.1 250.4,589.7C236.3,565.8 232.9,539.2 232.9,511.9Z" style="fill:rgb(0,114,198);fill-rule:nonzero;"/>
    </g>
</svg>
