<?xml version="1.0" encoding="UTF-8" standalone="no"?>
<!DOCTYPE svg PUBLIC "-//W3C//DTD SVG 1.1//EN" "http://www.w3.org/Graphics/SVG/1.1/DTD/svg11.dtd">
<svg width="100%" height="100%" viewBox="0 0 1792 1792" version="1.1" xmlns="http://www.w3.org/2000/svg" xmlns:xlink="http://www.w3.org/1999/xlink" xml:space="preserve" xmlns:serif="http://www.serif.com/" style="fill-rule:evenodd;clip-rule:evenodd;stroke-linejoin:round;stroke-miterlimit:1.41421;">
    <rect x="-1" y="-1" width="582" height="402" style="fill:none;"/>
    <path d="M987,957L1000,1664C958.7,1656.7 923.7,1653 895,1653C867.7,1653 832.7,1656.7 790,1664L803,957C776.3,911 720.2,812.5 634.5,661.5C548.8,510.5 476.7,385.7 418,287C359.3,188.3 299,92.7 237,0C275.7,10 311.7,15 345,15C373.7,15 410.7,10 456,0C498,74 542.5,150.5 589.5,229.5C636.5,308.5 692.2,400.7 756.5,506C820.8,611.3 867,687 895,733C919.7,692.3 956.2,633.2 1004.5,555.5C1052.8,477.8 1092,414.5 1122,365.5C1152,316.5 1187,257.8 1227,189.5C1267,121.2 1302.7,58 1334,0C1370,9.3 1405.7,14 1441,14C1478.3,14 1516.3,9.3 1555,0C1536.3,26 1516.3,55.5 1495,88.5C1473.7,121.5 1457.2,147.7 1445.5,167C1433.8,186.3 1415,218.3 1389,263C1363,307.7 1346.7,335.7 1340,347C1242.7,512.3 1125,715.7 987,957Z" style="fill:rgb(74,8,159);fill-rule:nonzero;"/>
</svg>
